<?xml version="1.0" encoding="UTF-8"?>
<svg id="Layer_2" data-name="Layer 2" xmlns="http://www.w3.org/2000/svg" viewBox="0 0 695.24 198.67">
  <defs>
    <style>
      .cls-1 {
        fill: #11b2ba;
      }

      .cls-2 {
        fill: #272d3e;
      }
    </style>
  </defs>
  <g id="katman_1" data-name="katman 1">
    <g>
      <g>
        <path class="cls-1" d="M82.11,139.39H20.89c-6.02,0-10.9-4.88-10.9-10.9s4.88-10.9,10.9-10.9h61.22c4.8,0,8.7-3.9,8.7-8.7s-3.9-8.7-8.7-8.7h-41.62c-16.82,0-30.5-13.68-30.5-30.5s13.68-30.5,30.5-30.5h89.17c4.8,0,8.7-3.9,8.7-8.7s-3.9-8.7-8.7-8.7h-44.56c-6.02,0-10.9-4.88-10.9-10.9S79.07,0,85.1,0h44.56c16.82,0,30.5,13.68,30.5,30.5s-13.68,30.5-30.5,30.5H40.49c-4.8,0-8.7,3.9-8.7,8.7s3.9,8.7,8.7,8.7h41.62c16.82,0,30.5,13.68,30.5,30.5s-13.68,30.5-30.5,30.5Z"/>
        <path class="cls-1" d="M20.89,198.67c-11.52,0-20.89-9.37-20.89-20.89s9.37-20.89,20.89-20.89,20.89,9.37,20.89,20.89-9.37,20.89-20.89,20.89ZM20.89,169.01c-4.84,0-8.78,3.94-8.78,8.77s3.94,8.78,8.78,8.78,8.78-3.94,8.78-8.78-3.94-8.77-8.78-8.77Z"/>
        <circle class="cls-1" cx="54.53" cy="10.9" r="10.89"/>
      </g>
      <g>
        <path class="cls-2" d="M209.06,44.49c0-2.71,1.04-5.02,3.13-6.91,2.08-1.89,4.63-2.84,7.64-2.84h66.19c0,6.4-1.07,11.06-3.2,13.97-2.13,2.91-5.58,4.36-10.33,4.36h-42.04v22.26h38.12c0,6.4-1.07,11.06-3.2,13.97-2.13,2.91-5.58,4.36-10.33,4.36h-24.59v29.53c0,5.14-1.67,8.87-5.02,11.2-3.35,2.33-8.8,3.49-16.37,3.49V44.49Z"/>
        <path class="cls-2" d="M300.18,53.73c-2.47-2.18-3.71-5.02-3.71-8.51s1.24-6.33,3.71-8.51c2.47-2.18,5.55-3.27,9.24-3.27s6.77,1.09,9.24,3.27c2.47,2.18,3.71,5.02,3.71,8.51s-1.24,6.33-3.71,8.51-5.55,3.27-9.24,3.27-6.77-1.09-9.24-3.27ZM299.38,74.17c0-4.17,1.65-7.15,4.95-8.95,3.3-1.79,8.29-2.69,14.99-2.69v63.72c0,4.17-1.65,7.15-4.95,8.95-3.3,1.79-8.29,2.69-14.98,2.69v-63.72Z"/>
        <path class="cls-2" d="M332.81,46.53c0-4.07,1.67-7.28,5.02-9.6,3.35-2.33,8.41-3.49,15.2-3.49v33.17c-1.65,1.16-2.72,2.14-3.2,2.91l.58.73c2.52-2.42,5.89-4.31,10.11-5.67,4.22-1.36,8.02-2.04,11.42-2.04,8.63,0,15.52,2.45,20.66,7.35,5.14,4.9,7.71,11.23,7.71,18.98v22.55c0,5.04-1.29,9.58-3.85,13.6-2.57,4.03-5.97,7.18-10.18,9.46-4.22,2.28-8.71,3.42-13.46,3.42-5.34,0-9.87-1.04-13.6-3.13-3.73-2.08-7.11-5.16-10.11-9.24l-.73.58c.48.87,1.4,2.13,2.76,3.78,0,2.52-1.41,4.49-4.22,5.89-2.81,1.41-7.52,2.11-14.11,2.11V46.53ZM376.82,117.96c2.37-1.84,3.56-4.51,3.56-8v-19.64c0-3.4-1.19-6.01-3.56-7.86-2.38-1.84-5.8-2.76-10.26-2.76-4.07,0-7.4.97-9.97,2.91-2.57,1.94-3.86,4.32-3.86,7.13v20.95c0,2.91,1.28,5.31,3.86,7.2,2.57,1.89,5.89,2.84,9.97,2.84,4.46,0,7.88-.92,10.26-2.76Z"/>
        <path class="cls-2" d="M436.08,84.21c-3.59,3.01-5.38,6.79-5.38,11.35v30.7c0,4.17-1.63,7.15-4.87,8.95-3.25,1.79-8.27,2.69-15.06,2.69v-60.23c0-4.85,1.6-8.58,4.8-11.2,3.2-2.62,7.95-3.93,14.26-3.93v8.58c-1.45,1.55-2.67,3.2-3.64,4.95l1.02.58c6.11-9.41,13.72-14.11,22.84-14.11,4.36,0,7.66,1.16,9.89,3.49,2.23,2.33,3.35,5.29,3.35,8.87,0,2.72-.73,5.09-2.18,7.13-2.72-1.55-6.35-2.33-10.91-2.33-5.82,0-10.52,1.51-14.11,4.51Z"/>
        <path class="cls-2" d="M490.6,134.4c-5.24-2.33-9.36-5.55-12.37-9.67-3.01-4.12-4.51-8.8-4.51-14.04v-19.35c0-5.33,1.45-10.21,4.36-14.62,2.91-4.41,6.98-7.88,12.22-10.4,5.24-2.52,11.15-3.78,17.75-3.78s12.51,1.26,17.75,3.78c5.24,2.52,9.31,5.99,12.22,10.4,2.91,4.41,4.36,9.29,4.36,14.62v19.35c0,5.24-1.5,9.92-4.51,14.04-3.01,4.12-7.13,7.35-12.37,9.67-5.24,2.33-11.06,3.49-17.46,3.49s-12.22-1.16-17.46-3.49ZM518.68,117.67c2.52-2.04,3.78-4.85,3.78-8.44v-16.87c0-3.78-1.29-6.84-3.85-9.17-2.57-2.33-6.09-3.49-10.55-3.49s-7.98,1.16-10.55,3.49c-2.57,2.33-3.85,5.38-3.85,9.17v16.87c0,3.59,1.26,6.4,3.78,8.44,2.52,2.04,6.06,3.06,10.62,3.06s8.1-1.02,10.62-3.06Z"/>
        <path class="cls-2" d="M620.05,122.76c0,4.85-1.6,8.58-4.8,11.2-3.2,2.62-7.95,3.93-14.26,3.93v-8.58c1.45-1.55,2.67-3.2,3.64-4.95l-1.02-.58c-6.11,9.41-14.35,14.11-24.73,14.11-4.85,0-9.26-1.14-13.24-3.42-3.98-2.28-7.11-5.48-9.38-9.6-2.28-4.12-3.42-8.8-3.42-14.04v-36.66c0-4.17,1.62-7.15,4.87-8.95,3.25-1.79,8.27-2.69,15.06-2.69v46.84c0,3.49,1.07,6.26,3.2,8.29,2.13,2.04,5.24,3.06,9.31,3.06,4.66,0,8.29-1.48,10.91-4.44,2.62-2.96,3.93-6.76,3.93-11.42v-30.7c0-4.17,1.62-7.15,4.87-8.95,3.25-1.79,8.27-2.69,15.06-2.69v60.23Z"/>
        <path class="cls-2" d="M639.08,132.87c-5.72-3.35-8.58-7.83-8.58-13.46,0-2.52,1.09-4.66,3.27-6.4,2.18-1.75,5.7-2.62,10.55-2.62.78,3.88,2.71,6.91,5.82,9.09,3.1,2.18,6.74,3.27,10.91,3.27,4.85,0,8.61-.58,11.27-1.75,2.67-1.16,4-2.86,4-5.09,0-1.94-1.07-3.64-3.2-5.09-2.14-1.45-6.4-2.96-12.8-4.51-7.47-1.75-13.26-3.51-17.38-5.31-4.12-1.79-7.15-4.05-9.09-6.77-1.94-2.71-2.91-6.3-2.91-10.76,0-6.3,2.64-11.37,7.93-15.21,5.28-3.83,12.68-5.75,22.19-5.75s16.88,1.6,22.69,4.8c5.82,3.2,8.73,7.47,8.73,12.8,0,2.71-1.02,4.68-3.06,5.89-2.04,1.21-5.43,1.87-10.18,1.96-1.26-3.69-3.18-6.42-5.75-8.22-2.57-1.79-6.23-2.69-10.98-2.69-3.4,0-6.4.58-9.02,1.75-2.62,1.16-3.93,2.57-3.93,4.22,0,1.84,1.09,3.3,3.27,4.36,2.18,1.07,5.84,2.14,10.98,3.2,11.15,2.43,19.18,5.63,24.08,9.6,4.9,3.98,7.35,9.36,7.35,16.15,0,4.17-1.31,7.9-3.93,11.2-2.62,3.3-6.4,5.84-11.35,7.64-4.95,1.79-10.77,2.69-17.46,2.69-9.89,0-17.7-1.67-23.42-5.02Z"/>
      </g>
    </g>
  </g>
</svg>