<?xml version="1.0" encoding="UTF-8"?>
<svg id="Layer_2" data-name="Layer 2" xmlns="http://www.w3.org/2000/svg" viewBox="0 0 71.55 88.76">
  <defs>
    <style>
      .cls-1 {
        fill: #11b2ba;
      }
    </style>
  </defs>
  <g id="katman_1" data-name="katman 1">
    <g>
      <path class="cls-1" d="M36.68,62.28H9.33c-2.69,0-4.87-2.18-4.87-4.87s2.18-4.87,4.87-4.87h27.35c2.14,0,3.89-1.74,3.89-3.89s-1.74-3.89-3.89-3.89h-18.59c-7.51,0-13.63-6.11-13.63-13.63s6.11-13.63,13.63-13.63h39.84c2.14,0,3.89-1.74,3.89-3.89s-1.74-3.89-3.89-3.89h-19.91c-2.69,0-4.87-2.18-4.87-4.87s2.18-4.87,4.87-4.87h19.91c7.51,0,13.63,6.11,13.63,13.63s-6.11,13.63-13.63,13.63H18.09c-2.14,0-3.89,1.74-3.89,3.89s1.74,3.89,3.89,3.89h18.59c7.51,0,13.63,6.11,13.63,13.63s-6.11,13.63-13.63,13.63Z"/>
      <path class="cls-1" d="M9.33,88.76c-5.15,0-9.33-4.19-9.33-9.33s4.19-9.33,9.33-9.33,9.33,4.19,9.33,9.33-4.19,9.33-9.33,9.33ZM9.33,75.51c-2.16,0-3.92,1.76-3.92,3.92s1.76,3.92,3.92,3.92,3.92-1.76,3.92-3.92-1.76-3.92-3.92-3.92Z"/>
      <circle class="cls-1" cx="24.36" cy="4.87" r="4.87"/>
    </g>
  </g>
</svg>