<svg width="16" height="16" viewBox="0 0 16 16" fill="none" xmlns="http://www.w3.org/2000/svg">
<path d="M7.99994 15.1733C7.27327 15.1733 6.55327 14.96 5.9866 14.54L3.11993 12.4C2.35993 11.8333 1.7666 10.6466 1.7666 9.70663V4.74663C1.7666 3.71996 2.51993 2.62663 3.4866 2.26663L6.81327 1.01996C7.47327 0.773294 8.51327 0.773294 9.17327 1.01996L12.4999 2.26663C13.4666 2.62663 14.2199 3.71996 14.2199 4.74663V9.69996C14.2199 10.6466 13.6266 11.8266 12.8666 12.3933L9.99994 14.5333C9.4466 14.96 8.7266 15.1733 7.99994 15.1733Z" fill="#FFB800" fill-opacity="0.25"/>
<path d="M7.99994 15.1733C7.27327 15.1733 6.55327 14.96 5.9866 14.54L3.11993 12.4C2.35993 11.8333 1.7666 10.6466 1.7666 9.70663V4.74663C1.7666 3.71996 2.51993 2.62663 3.4866 2.26663L6.81327 1.01996C7.47327 0.773294 8.51327 0.773294 9.17327 1.01996L12.4999 2.26663C13.4666 2.62663 14.2199 3.71996 14.2199 4.74663V9.69996C14.2199 10.6466 13.6266 11.8266 12.8666 12.3933L9.99994 14.5333C9.4466 14.96 8.7266 15.1733 7.99994 15.1733ZM7.1666 1.95996L3.83994 3.20663C3.27327 3.41996 2.77327 4.13996 2.77327 4.75329V9.70663C2.77327 10.34 3.21993 11.2266 3.71993 11.6L6.5866 13.74C7.35327 14.3133 8.6466 14.3133 9.41993 13.74L12.2866 11.6C12.7933 11.22 13.2333 10.34 13.2333 9.70663V4.74663C13.2333 4.13996 12.7333 3.41996 12.1666 3.19996L8.83994 1.95329C8.3866 1.79329 7.61327 1.79329 7.1666 1.95996Z" fill="#FFB800"/>
<path d="M8 9.16663C7.72667 9.16663 7.5 8.93996 7.5 8.66663V5.16663C7.5 4.89329 7.72667 4.66663 8 4.66663C8.27333 4.66663 8.5 4.89329 8.5 5.16663V8.66663C8.5 8.93996 8.27333 9.16663 8 9.16663Z" fill="#FFB800"/>
<path d="M8.00016 11.4999C7.82016 11.4999 7.65348 11.4333 7.52681 11.3066C7.46681 11.24 7.42017 11.1666 7.38017 11.0866C7.34683 11.0066 7.3335 10.9199 7.3335 10.8333C7.3335 10.6599 7.40681 10.4866 7.52681 10.3599C7.77348 10.1133 8.22684 10.1133 8.47351 10.3599C8.59351 10.4866 8.66683 10.6599 8.66683 10.8333C8.66683 10.9199 8.64682 11.0066 8.61348 11.0866C8.58015 11.1666 8.53351 11.24 8.47351 11.3066C8.34684 11.4333 8.18016 11.4999 8.00016 11.4999Z" fill="#FFB800"/>
</svg>
