<svg width="16" height="16" viewBox="0 0 16 16" fill="none" xmlns="http://www.w3.org/2000/svg">
<path d="M7.99994 15.1733C7.27327 15.1733 6.55327 14.96 5.9866 14.54L3.11993 12.4C2.35993 11.8333 1.7666 10.6466 1.7666 9.70663V4.74663C1.7666 3.71996 2.51993 2.62663 3.4866 2.26663L6.81327 1.01996C7.47327 0.773294 8.51327 0.773294 9.17327 1.01996L12.4999 2.26663C13.4666 2.62663 14.2199 3.71996 14.2199 4.74663V9.69996C14.2199 10.6466 13.6266 11.8266 12.8666 12.3933L9.99994 14.5333C9.4466 14.96 8.7266 15.1733 7.99994 15.1733Z" fill="#3BC171" fill-opacity="0.25"/>
<path d="M7.99994 15.1733C7.27327 15.1733 6.55327 14.96 5.9866 14.54L3.11993 12.4C2.35993 11.8333 1.7666 10.6466 1.7666 9.70663V4.74663C1.7666 3.71996 2.51993 2.62663 3.4866 2.26663L6.81327 1.01996C7.47327 0.773294 8.51327 0.773294 9.17327 1.01996L12.4999 2.26663C13.4666 2.62663 14.2199 3.71996 14.2199 4.74663V9.69996C14.2199 10.6466 13.6266 11.8266 12.8666 12.3933L9.99994 14.5333C9.4466 14.96 8.7266 15.1733 7.99994 15.1733ZM7.1666 1.95996L3.83994 3.20663C3.27327 3.41996 2.77327 4.13996 2.77327 4.75329V9.70663C2.77327 10.34 3.21993 11.2266 3.71993 11.6L6.5866 13.74C7.35327 14.3133 8.6466 14.3133 9.41993 13.74L12.2866 11.6C12.7933 11.22 13.2333 10.34 13.2333 9.70663V4.74663C13.2333 4.13996 12.7333 3.41996 12.1666 3.19996L8.83994 1.95329C8.3866 1.79329 7.61327 1.79329 7.1666 1.95996Z" fill="#3BC171"/>
<path d="M7.10682 9.4867C6.98016 9.4867 6.85349 9.44004 6.75349 9.34004L5.68016 8.2667C5.48682 8.07337 5.48682 7.75337 5.68016 7.56004C5.87349 7.3667 6.19349 7.3667 6.38682 7.56004L7.10682 8.28004L9.62016 5.7667C9.81349 5.57337 10.1335 5.57337 10.3268 5.7667C10.5202 5.96004 10.5202 6.28004 10.3268 6.47337L7.46016 9.34004C7.36016 9.44004 7.23349 9.4867 7.10682 9.4867Z" fill="#3BC171"/>
</svg>
